<?xml version="1.0" encoding="UTF-8" standalone="no"?>
<svg id="svg2" xmlns:rdf="http://www.w3.org/1999/02/22-rdf-syntax-ns#" xmlns="http://www.w3.org/2000/svg" height="31.563mm" width="31.044mm" version="1.1" xmlns:cc="http://creativecommons.org/ns#" xmlns:dc="http://purl.org/dc/elements/1.1/" viewBox="0 0 110 111.83674">
 <g id="layer1" fill-rule="evenodd" transform="translate(-146.81 -220.42)">
  <path id="path3336" d="m202.16 224.67a54.647 54.647 0 0 0 -6.4692 0.43477c3.621 3.8971 6.7519 7.8536 9.4621 11.824a50.344 50.344 0 0 1 40.352 49.343 50.344 50.344 0 0 1 -6.2557 24.227c2.6436-0.13378 5.3746-0.38097 8.1986-0.75697a54.647 54.647 0 0 0 9.3592 -30.424 54.647 54.647 0 0 0 -54.647 -54.647zm-12.771 1.5935a54.647 54.647 0 0 0 -40.026 39.226 50.344 50.344 0 0 1 41.62 -29.322c-0.2746-3.7252-0.87967-7.0468-1.5935-9.9046zm43.374 98.194c-2.2568 0.63744-4.4862 1.1193-6.6866 1.4576a50.344 50.344 0 0 1 -10.588 6.3469 54.647 54.647 0 0 0 17.274 -7.8045z" fill="#37abc8"/>
  <path id="path4160" d="m188.99 220.42s18.931 35.385-16.837 70.131l40.139 17.618s16.647-46.078-23.301-87.749z" fill="#3771c8"/>
  <path id="path4162" d="m211.45 251.24s12.426 20.94 4.967 50.472l14.138 7.474s8.3274-38.745-19.105-57.946z" fill="#3771c8"/>
  <path id="path4166" d="m158.24 310.85c33.362-17.36 43.466 12.344 97.658-0.86525-33.554 25.136-71.639-5.0994-97.658 0.86525z" fill="#5df"/>
  <path id="path4166-6" d="m146.81 318.52c25.034-19.515 48.916 14.02 97.631-0.0205-39.59 19.037-75.397-8.2241-97.631 0.0205z" fill="#5df"/>
 </g>
</svg>
